<?xml version="1.0" encoding="utf-8"?>
<!-- Generator: Adobe Illustrator 15.0.0, SVG Export Plug-In . SVG Version: 6.00 Build 0)  -->
<!DOCTYPE svg PUBLIC "-//W3C//DTD SVG 1.1//EN" "http://www.w3.org/Graphics/SVG/1.1/DTD/svg11.dtd">
<svg version="1.1" id="Ebene_1" xmlns="http://www.w3.org/2000/svg" xmlns:xlink="http://www.w3.org/1999/xlink" x="0px" y="0px"
	 width="612px" height="792px" viewBox="0 0 612 792" enable-background="new 0 0 612 792" xml:space="preserve">
<g id="Content">
	<g>
		<path opacity="0.1" fill="#FFFFFF" d="M0,436.8c0,168.912,137.088,306,306,306s306-137.088,306-306c0-168.912-137.088-306-306-306
			S0,267.888,0,436.8"/>
		<g>
			<g>
				<g>
					<defs>
						<path id="SVGID_1_" d="M0,436.8c0,168.912,137.088,306,306,306s306-137.088,306-306c0-168.912-137.088-306-306-306
							S0,267.888,0,436.8"/>
					</defs>
					<clipPath id="SVGID_2_">
						<use xlink:href="#SVGID_1_"  overflow="visible"/>
					</clipPath>
					<g clip-path="url(#SVGID_2_)">
						<path fill="#E9BCA6" d="M315.792,693.84L315.792,693.84c-1.224-2.448-0.408-4.896,1.632-6.528l-2.855-6.119
							c-2.448,0.407-4.488-0.816-5.712-2.856l0,0c-1.225-2.448,0-5.712,2.447-6.936l2.04-0.816l7.752-3.264l13.057-5.712l6.12-2.856
							c15.504-6.936,21.216,5.712,28.151,21.216c6.937,15.504,13.057,28.152-2.855,35.088l-6.12,2.856L357,719.136l-18.36,8.16
							l-1.632,0.816c-2.448,1.224-5.712,0-6.936-2.448l0,0c-0.816-2.04-0.408-4.08,1.224-5.712l-2.855-6.528
							c-2.04,0-4.08-0.815-5.305-2.855l0,0c-0.815-2.04-0.407-4.488,1.225-5.712l-2.856-6.528
							C319.056,697.104,316.608,695.88,315.792,693.84"/>
						<path fill="#E9BCA6" d="M301.92,695.064L301.92,695.064c1.224-2.448,0.408-4.896-1.632-6.528l2.855-6.12
							c2.448,0.408,4.488-0.816,5.713-2.856l0,0c1.224-2.447,0-5.712-2.448-6.936l-2.04-0.816l-7.752-3.264l-13.056-5.712
							l-6.12-2.855c-15.504-6.937-21.216,5.712-28.152,21.216s-13.056,28.151,2.856,35.088l6.12,2.855l2.448,1.225l18.36,8.16
							l1.632,0.815c2.448,1.225,5.712,0,6.936-2.448l0,0c0.816-2.04,0.408-4.08-1.224-5.712l2.856-6.527
							c2.04,0,4.08-0.816,5.304-2.856l0,0c0.816-2.04,0.408-4.488-1.224-5.712l2.856-6.528
							C298.656,698.328,301.104,697.104,301.92,695.064"/>
						<path fill="#1F3F5B" d="M214.2,592.656c-12.24-55.488,23.256-110.568,78.744-122.809c13.056-2.855,21.216-15.504,18.36-28.56
							c-2.855-13.056-15.504-21.216-28.56-18.36c-39.576,8.568-73.032,32.232-95.064,66.097
							c-21.624,33.863-28.968,74.664-20.4,113.832L214.2,592.656z"/>
						<path fill="#1F3F5B" d="M405.144,592.656c12.24-55.488-23.256-110.568-78.743-122.809
							c-13.057-2.855-21.217-15.504-18.36-28.56s15.504-21.216,28.56-18.36c39.576,8.568,73.032,32.232,95.064,66.097
							c21.624,33.863,28.968,74.664,20.4,113.832L405.144,592.656z"/>
						<path fill="#F2D4C1" d="M344.76,714.648c-9.384-0.408-17.952-6.528-21.216-15.912c-4.488-12.648-2.448-24.48,10.2-28.969
							c33.864-11.832,64.056-42.023,71.399-77.111l46.104,10.2c-11.424,51.407-46.92,93.84-97.104,111.384
							C351.288,715.056,348.024,714.648,344.76,714.648"/>
						<polygon fill="#023456" points="436.968,593.88 456.96,597.145 452.064,610.2 						"/>
						<path fill="#002035" d="M401.472,603.672c0,0-4.487-9.384,6.937-19.992c0,0,14.688-12.647,22.439-3.264
							c0,0,15.097,15.504,21.217,29.376l-3.673,5.304C448.392,615.504,427.176,601.632,401.472,603.672z"/>
						<path fill="#F2D4C1" d="M274.176,714.648c9.384-0.408,17.952-6.528,21.216-15.912c4.488-12.648,2.448-24.48-10.2-28.969
							c-33.864-11.832-63.648-42.023-71.4-77.111l-46.104,10.2c11.424,51.407,46.92,93.84,97.104,111.384
							C267.648,715.056,270.912,714.648,274.176,714.648"/>
						<polygon fill="#023456" points="181.968,593.88 161.976,597.145 166.872,610.2 						"/>
						<path fill="#002035" d="M217.464,603.672c0,0,4.488-9.384-6.936-19.992c0,0-14.688-12.647-22.44-3.264
							c0,0-15.096,15.504-21.216,29.376l3.672,5.304C170.544,615.504,191.76,601.632,217.464,603.672z"/>
						<g>
							<path fill="#1F3F5B" d="M397.392,709.344c0,43.656-37.128,81.192-80.783,81.192h-14.28
								c-43.656,0-79.152-37.536-79.152-81.192V498.816c0-43.656,35.496-79.969,79.152-79.969h14.28
								c43.655,0,80.783,36.312,80.783,79.969V709.344L397.392,709.344z"/>
						</g>
						<path fill="#023456" d="M397.392,528.192c0,0,0.408-14.28-8.567-26.929C388.824,501.264,392.904,512.28,397.392,528.192z"/>
						<path fill="#023456" d="M223.584,524.112c0,0-0.408-14.28,8.568-26.929C231.744,496.776,228.072,507.792,223.584,524.112z"/>
						<g>
							<polygon fill="#023456" points="310.488,780.336 312.528,780.336 312.528,473.52 310.488,473.928 							"/>
							<path fill="#002035" d="M320.28,502.488c0,1.632-1.225,2.855-2.856,2.855s-2.855-1.224-2.855-2.855s1.224-2.856,2.855-2.856
								S320.28,500.856,320.28,502.488"/>
							<path fill="#002035" d="M320.28,469.848c0,1.633-1.225,2.856-2.856,2.856s-2.855-1.224-2.855-2.856
								c0-1.632,1.224-2.855,2.855-2.855S320.28,468.216,320.28,469.848"/>
							<path fill="#002035" d="M320.28,546.144c0,1.633-1.225,2.856-2.856,2.856s-2.855-1.224-2.855-2.856
								c0-1.632,1.224-2.855,2.855-2.855C319.056,542.88,320.28,544.512,320.28,546.144"/>
							<path fill="#002035" d="M320.28,591.024c0,1.632-1.225,2.855-2.856,2.855s-2.855-1.224-2.855-2.855
								c0-1.633,1.224-2.856,2.855-2.856S320.28,589.392,320.28,591.024"/>
							<path fill="#002035" d="M320.28,640.392c0,1.632-1.225,2.856-2.856,2.856s-2.855-1.225-2.855-2.856s1.224-2.855,2.855-2.855
								S320.28,638.76,320.28,640.392"/>
							<path fill="#002035" d="M320.28,686.088c0,1.632-1.225,2.856-2.856,2.856s-2.855-1.225-2.855-2.856s1.224-2.855,2.855-2.855
								C319.056,682.824,320.28,684.456,320.28,686.088"/>
							<path fill="#002035" d="M320.28,728.52c0,1.633-1.225,2.856-2.856,2.856s-2.855-1.224-2.855-2.856
								c0-1.632,1.224-2.855,2.855-2.855S320.28,726.888,320.28,728.52"/>
						</g>
						<rect x="339.048" y="503.304" fill="#432A3E" width="35.088" height="8.16"/>
						<polygon fill="#F2D4C1" points="272.136,396 347.616,396 347.616,438.024 311.712,475.56 272.544,439.248 						"/>
						<path fill="#023456" d="M358.632,443.328c0,0-19.584,6.12-47.735,38.352c0,0-0.408-15.096,15.504-27.336
							C326.4,454.752,345.168,439.248,358.632,443.328z"/>
						<path fill="#023456" d="M276.216,445.776c0,0,18.36,15.096,36.312,37.128c0,0,0.815-14.688-19.584-28.152
							C292.944,454.752,281.928,444.144,276.216,445.776z"/>
						<path fill="#6D6E72" d="M292.944,454.752c0,0-19.176-24.888-19.176-49.368c0,0-4.896,10.608-12.24,20.809
							c-6.936,10.607-4.488,18.359-4.488,18.359S271.728,442.512,292.944,454.752z"/>
						<path fill="#6D6E72" d="M326.4,454.752c0,0,19.176-24.888,19.176-49.368c0,0,4.896,10.608,11.832,20.809
							c6.936,10.607,4.487,18.359,4.487,18.359S347.616,442.512,326.4,454.752z"/>
					</g>
				</g>
			</g>
			<path fill="#776130" d="M436.56,219.744c0,78.336-49.367,153.408-122.399,153.408s-122.4-75.072-122.4-153.408
				s49.368-122.4,122.4-122.4S436.56,141.408,436.56,219.744"/>
			<path fill="#F2D4C1" d="M428.4,219.744v62.016c0,69.36-68.544,126.48-114.24,126.48s-114.24-56.712-114.24-126.48v-62.016"/>
			<path fill="#F2D4C1" d="M429.216,238.104c0-22.848-0.815-43.248-11.832-60.384c-21.624-34.68-57.527-2.856-104.04-2.856
				c-50.592,0-89.352-28.152-109.344,11.832c-7.752,15.096-10.608,48.552-10.608,67.728"/>
			<path fill="#F2D4C1" d="M456.552,270.336c0,12.648-10.2,23.256-23.256,23.256c-12.647,0-23.256-10.2-23.256-23.256
				c0-12.648,10.2-23.256,23.256-23.256C445.944,247.08,456.552,257.28,456.552,270.336"/>
			<path fill="#F2D4C1" d="M216.24,270.336c0,12.648-10.2,23.256-23.256,23.256c-12.648,0-23.256-10.2-23.256-23.256
				c0-12.648,10.2-23.256,23.256-23.256C205.632,247.08,216.24,257.28,216.24,270.336"/>
			<path fill="#ECA671" d="M311.712,270.744c-5.712-0.408-10.608,4.896-10.608,11.832v19.176c0,6.528,4.896,12.24,10.608,12.648
				c5.712,0.408,10.608-4.896,10.608-11.832v-19.176C322.728,276.456,317.832,271.152,311.712,270.744"/>
			<path fill="#754B21" d="M263.16,268.704c-3.672,0-6.528-2.856-6.528-6.528c0-3.672,2.856-6.528,6.528-6.528
				c3.672,0,6.528,2.856,6.528,6.528C269.688,265.848,266.832,268.704,263.16,268.704"/>
			<path fill="#754B21" d="M364.752,268.704c3.672,0,6.528-2.856,6.528-6.528c0-3.672-2.856-6.528-6.528-6.528
				s-6.528,2.856-6.528,6.528C358.224,265.848,361.08,268.704,364.752,268.704"/>
			<path fill="#704D24" d="M342.312,246.264h-0.816l-0.408-2.448l0.816-0.408c0,0,3.672-2.448,8.976-4.488
				c1.224-0.408,2.448-0.816,3.672-0.816l1.225-0.408c1.632-0.408,3.264-0.408,5.304-0.816c1.632,0,3.264,0,4.488,0.408h1.224h0.408
				c0.408,0,1.224,0,1.632,0.408c1.224,0,2.448,0.408,3.672,0.816l5.304,1.224c1.225,0.408,2.448,0.816,3.673,1.224
				c0.407,0.408,1.224,0.408,1.632,0.816l1.224,0.408c1.225,0.408,2.448,0.816,3.672,1.632l6.12,3.264
				c1.632,0.816,3.265,2.04,4.08,2.856c1.224,0.816,2.04,1.632,2.04,1.632l0.816,0.816l-1.225,2.04l-1.224-0.408
				c0,0-0.816-0.408-2.04-1.224c-1.225-0.408-2.856-1.224-4.896-2.04l-1.224-0.408c-0.816,0-1.632-0.408-2.448-0.816
				c-2.04-0.816-4.08-1.224-6.527-1.632c-0.816,0-1.225-0.408-2.04-0.408c-1.225-0.408-2.04-0.408-3.265-0.408l-4.896-0.816
				c-1.225,0-2.448,0-3.265,0c-0.407,0-1.224,0-1.632,0c-0.815,0-1.632,0-2.448,0c-0.815,0-1.632,0-2.447,0
				c-2.04,0-3.672,0.408-4.896,0.408c-0.815,0-1.632,0-2.448,0c-0.815,0-1.224,0-1.632,0
				C346.392,247.08,342.72,246.264,342.312,246.264"/>
			<path fill="#704D24" d="M273.768,246.672c-0.408,0-1.224,0-2.04,0s-1.632,0-2.448,0c-1.224,0-2.856,0-4.896-0.408
				c-0.816,0-1.632,0-2.448,0s-1.632,0-2.448,0c-0.408,0-1.224,0-1.632,0c-1.224,0-2.448,0-3.264,0l-5.712,0.408
				c-1.224,0-2.04,0.408-3.264,0.408c-0.816,0-1.224,0.408-2.04,0.408c-2.448,0.408-4.488,1.224-6.528,1.632
				c-0.816,0.408-1.632,0.408-2.448,0.816l-1.224,0.408c-2.04,0.816-3.672,1.224-4.896,2.04c-1.224,0.408-2.04,1.224-2.04,1.224
				l-1.224,0.408l-1.632-2.448l0.816-0.816c0,0,0.816-0.816,2.04-1.632c1.224-0.816,2.448-1.632,4.08-2.856l6.12-3.264
				c1.224-0.816,2.448-1.224,3.672-1.632l1.224-0.408c0.408,0,1.224-0.408,1.632-0.816c1.224-0.408,2.448-0.816,3.672-1.224
				l5.712-1.224c1.224-0.408,2.448-0.408,3.672-0.816c0.408,0,1.224,0,1.632-0.408h0.408h1.224c1.632-0.408,2.856-0.408,4.488-0.408
				c2.04,0.408,4.08,0.408,5.304,0.816h1.224c1.224,0.408,2.448,0.408,3.672,0.816c5.304,2.04,8.568,4.08,8.976,4.488l0.816,0.408
				l-0.408,2.448h-0.816C283.152,246.264,279.072,247.08,273.768,246.672"/>
			<path fill="#776130" d="M417.792,172.824c0,0,7.344,22.44,2.448,33.456c-4.488,11.016-2.04,17.136,2.855,26.112
				c4.488,9.384,6.12,21.624,6.12,21.624s6.12-34.68,2.856-53.448C429.216,183.024,417.792,172.824,417.792,172.824"/>
			<path fill="#776130" d="M208.896,175.68c0,0-8.568,22.44-3.264,33.456c5.712,11.016,2.448,17.136-3.264,26.112
				c-5.712,9.384-7.752,21.624-7.752,21.624s-7.752-34.68-3.672-53.448C195.432,185.472,208.896,175.68,208.896,175.68"/>
			<path fill="#AA9168" d="M314.976,327.864c0,0,4.896,0.816,19.177,0.816c14.279,0,28.968,28.968,28.968,28.968
				s7.344-6.936-5.304-27.336c-3.265-5.304-15.097-14.28-25.704-15.096c-10.608-1.224-17.952,3.264-17.952,3.264
				c-3.264,1.632-4.896,0.408-4.896,0.408s-6.12-5.304-16.728-4.488c-10.608,0.816-22.44,10.2-25.704,15.096
				c-12.24,18.768-4.488,24.888-4.488,24.888s14.28-26.52,28.56-26.52s19.176-0.816,19.176-0.816
				C311.304,324.192,312.528,323.784,314.976,327.864"/>
			<path fill="#776130" d="M359.856,351.936c0,0,8.567,0,15.911-10.608c7.345-10.608,30.192-13.056,37.944-46.512
				s19.584-51,19.584-51s-2.448,17.952-4.08,49.776c-2.04,31.416-28.151,94.248-93.432,115.057
				C300.288,400.488,387.192,380.088,359.856,351.936"/>
			<path fill="#776130" d="M263.976,351.936c0,0-4.896-0.408-11.832-11.016c-7.344-10.608-30.192-13.056-37.944-46.512
				c-7.752-33.456-21.216-51-21.216-51s4.08,17.952,6.12,49.776c2.04,31.416,27.336,94.248,92.208,115.056
				c35.496-7.752-54.672-25.704-27.336-54.264"/>
			<path fill="#8E7747" d="M326.808,367.44c0,4.488-6.527,16.728-14.688,16.728s-14.688-12.24-14.688-16.728
				c0-4.488,6.528-7.752,14.688-7.752S326.808,363.36,326.808,367.44"/>
			<path fill="#826B41" d="M359.856,351.936c0,0.816,0,1.632,0,2.448c0,15.096-20.809,26.928-46.104,26.928
				s-50.184-11.832-50.184-26.928c0-0.816,0-1.632,0-2.448c-6.528,5.712-10.2,15.912-10.2,25.704
				c0,24.48,28.56,34.272,59.567,34.272c31.009,0,56.713-9.792,56.713-34.272C369.648,367.848,365.976,358.872,359.856,351.936"/>
			<path d="M424.728,243c0,0-44.472-14.28-90.983-0.816c0,0-19.992,12.24-46.92-0.408c0,0-39.168-12.648-84.864-0.816
				c0,0-1.632,2.448-1.224,8.568c0,0-0.408,4.08,1.632,4.896c2.04,0.816,3.264,2.04,4.08,5.304
				c0.816,3.264,4.896,31.824,14.688,38.352c0,0,12.24,13.464,44.064,8.976c0,0,20.808-4.896,27.336-15.504
				c6.528-10.608,7.752-29.784,19.584-29.784c0,0,9.384-1.632,13.872,19.584c0,0,7.344,20.808,18.768,22.848
				c0,0,16.729,9.792,48.553,2.448c0,0,16.728-4.896,21.216-24.072c4.896-19.176,6.936-26.52,10.2-26.112
				c0,0,5.304-0.816,6.936-2.448c1.632-2.04,2.448-7.752,2.448-7.752S431.664,243.408,424.728,243z M283.56,295.632
				c0,0-14.688,12.24-36.312,7.752c0,0-23.664,1.224-29.784-19.176c0,0-9.384-21.216-2.448-35.904c0,0,1.224-7.752,26.52-8.16
				c0,0,22.44,0.816,30.192,2.856c0,0,22.848,0.408,24.48,17.544C296.616,260.544,298.248,278.496,283.56,295.632z M405.144,293.592
				c0,0-9.384,13.464-31.823,12.24c0,0-19.992,0.816-29.784-6.936c0,0-10.608-6.936-15.504-26.112c0,0-2.856-14.28,2.04-19.176
				c0,0,7.344-9.384,29.376-10.608c0,0,15.096-2.04,34.271,0c0,0,17.136,0.408,18.769,14.28
				C412.896,257.28,416.976,275.232,405.144,293.592z"/>
			<g>
				<path fill="#EFEFEF" d="M185.232,209.544c0,0,2.856-33.864,8.976-55.896c5.712-19.584,97.104-70.584,117.096-70.584
					c22.44,0,117.912,45.288,127.296,78.744c0,0,2.856,18.768-2.04,48.96C436.56,210.768,308.448,145.08,185.232,209.544z"/>
				<path opacity="0.8" fill="#124214" enable-background="new    " d="M190.536,227.904v-20.4c0,0,53.04-35.088,115.464-28.56
					c62.424,6.528,92.616,10.608,130.56,31.416v13.464c0,0-73.031-23.664-130.56-26.52
					C299.472,196.896,234.6,197.712,190.536,227.904z"/>
				<path fill="#56BF62" d="M182.784,216.888c0,0,97.92-75.072,257.448,0c0,0,11.424,2.856,6.527-7.752
					c0,0-135.456-82.008-269.688,0C177.072,208.728,168.096,218.52,182.784,216.888z"/>
				<path fill="#333333" d="M274.176,151.608c0,0,49.368-6.936,70.992-0.408c21.624,6.528,11.424-11.016,11.424-11.016
					l-13.872-36.312c0,0-2.04-10.2-19.176-11.016c-17.544-0.816-34.272-1.224-41.208,8.16c-6.936,9.384-17.544,40.392-17.544,40.392
					S259.896,153.24,274.176,151.608z"/>
				<path fill="none" stroke="#F6CF40" stroke-miterlimit="10" d="M274.176,151.608c0,0,49.368-6.936,70.992-0.408
					c21.624,6.528,11.424-11.016,11.424-11.016l-13.872-36.312c0,0-2.04-10.2-19.176-11.016c-17.544-0.816-34.272-1.224-41.208,8.16
					c-6.936,9.384-17.544,40.392-17.544,40.392S259.896,153.24,274.176,151.608z"/>
				<path fill="#56BF62" d="M282.744,130.392c0-1.224,11.016-28.968,11.016-28.968l5.712,28.968h-4.488l-0.816,9.792
					c0,0-4.896,0.816-4.896,0s-0.408-9.792-0.408-9.792H282.744z"/>
				<path fill="#FFFFFF" d="M297.432,106.32l4.08,18.768l39.984,2.04l-11.832-20.808c0,0-10.608,8.976-12.24,8.976
					s-8.567-13.872-8.567-13.872L297.432,106.32z"/>
				<polygon fill="#44B5D4" points="301.512,128.352 306.408,133.656 331.704,133.656 331.704,131.208 				"/>
				<path fill="#56BF62" d="M298.248,137.328c0,0-0.408,6.936,1.224,6.12c1.632-0.816,24.48-2.856,24.48-2.856l22.032,4.896v-8.16
					H298.248z"/>
			</g>
			<path fill="#6A330D" d="M311.712,347.856c-7.752,0-14.688-4.08-18.768-10.608c-0.408-0.408-0.408-0.816-0.408-1.632
				c0-0.408,0.408-0.816,0.816-1.224c0.408,0,0.816-0.408,1.224-0.408c0.816,0,1.224,0.408,1.632,0.816
				c3.264,5.304,9.384,8.568,15.504,8.568c6.528,0,12.24-3.264,15.504-8.568c0.408-0.408,0.816-0.816,1.632-0.816
				c0.408,0,0.816,0,1.225,0.408c0.408,0.408,0.815,0.816,0.815,1.224c0,0.408,0,1.224-0.407,1.632
				C326.4,343.776,319.464,347.856,311.712,347.856"/>
			<polygon points="207.672,242.184 204.816,255.648 193.392,249.12 192.576,243.408 207.672,239.328 			"/>
		</g>
	</g>
</g>
</svg>
