<?xml version="1.0" encoding="UTF-8" standalone="no"?>
<svg width="150px" height="162px" viewBox="0 0 150 162" version="1.1" xmlns="http://www.w3.org/2000/svg" xmlns:xlink="http://www.w3.org/1999/xlink" xmlns:sketch="http://www.bohemiancoding.com/sketch/ns">
    <title>Slice 1</title>
    <description>Created with Sketch (http://www.bohemiancoding.com/sketch)</description>
    <defs>
        <path id="path-1" d="M0,75 C0,116.4 33.6,150 75,150 C116.4,150 150,116.4 150,75 C150,33.6 116.4,0 75,0 C33.6,0 0,33.6 0,75"></path>
    </defs>
    <g id="Page-1" stroke="none" stroke-width="1" fill="none" fill-rule="evenodd" sketch:type="MSPage">
        <g id="me" sketch:type="MSLayerGroup">
            <g id="Content">
                <g id="Group">
                    <path d="M0,87 C0,128.4 33.6,162 75,162 C116.4,162 150,128.4 150,87 C150,45.6 116.4,12 75,12 C33.6,12 0,45.6 0,87" id="Shape" fill="#F1F8FC" sketch:type="MSShapeGroup"></path>
                    <g>
                        <g id="Clipped" transform="translate(0.000000, 12.000000)">
                            <mask id="mask-2" sketch:name="SVGID_588_" fill="white">
                                <use xlink:href="#path-1"></use>
                            </mask>
                            <g id="SVGID_588_"></g>
                            <g id="Group" mask="url(#mask-2)" transform="translate(40.000000, 65.000000)" sketch:type="MSShapeGroup">
                                <path d="M37.4,73 L37.4,73 C37.1,72.4 37.3,71.8 37.8,71.4 L37.1,69.9 C36.5,70 36,69.7 35.7,69.2 L35.7,69.2 C35.4,68.6 35.7,67.8 36.3,67.5 L36.8,67.3 L38.7,66.5 L41.9,65.1 L43.4,64.4 C47.2,62.7 48.6,65.8 50.3,69.6 C52,73.4 53.5,76.5 49.6,78.2 L48.1,78.9 L47.5,79.2 L43,81.2 L42.6,81.4 C42,81.7 41.2,81.4 40.9,80.8 L40.9,80.8 C40.7,80.3 40.8,79.8 41.2,79.4 L40.5,77.8 C40,77.8 39.5,77.6 39.2,77.1 L39.2,77.1 C39,76.6 39.1,76 39.5,75.7 L38.8,74.1 C38.2,73.8 37.6,73.5 37.4,73" id="Shape" fill="#E9BCA6"></path>
                                <path d="M34,73.3 L34,73.3 C34.3,72.7 34.1,72.1 33.6,71.7 L34.3,70.2 C34.9,70.3 35.4,70 35.7,69.5 L35.7,69.5 C36,68.9 35.7,68.1 35.1,67.8 L34.6,67.6 L32.7,66.8 L29.5,65.4 L28,64.7 C24.2,63 22.8,66.1 21.1,69.9 C19.4,73.7 17.9,76.8 21.8,78.5 L23.3,79.2 L23.9,79.5 L28.4,81.5 L28.8,81.7 C29.4,82 30.2,81.7 30.5,81.1 L30.5,81.1 C30.7,80.6 30.6,80.1 30.2,79.7 L30.9,78.1 C31.4,78.1 31.9,77.9 32.2,77.4 L32.2,77.4 C32.4,76.9 32.3,76.3 31.9,76 L32.6,74.4 C33.2,74.1 33.8,73.8 34,73.3" id="Shape" fill="#E9BCA6"></path>
                                <path d="M12.5,48.2 C9.5,34.6 18.2,21.1 31.8,18.1 C35,17.4 37,14.3 36.3,11.1 C35.6,7.9 32.5,5.9 29.3,6.6 C19.6,8.7 11.4,14.5 6,22.8 C0.7,31.1 -1.1,41.1 1,50.7 L12.5,48.2 L12.5,48.2 Z" id="Shape" fill="#1F3F5B"></path>
                                <path d="M59.3,48.2 C62.3,34.6 53.6,21.1 40,18.1 C36.8,17.4 34.8,14.3 35.5,11.1 C36.2,7.9 39.3,5.9 42.5,6.6 C52.2,8.7 60.4,14.5 65.8,22.8 C71.1,31.1 72.9,41.1 70.8,50.7 L59.3,48.2 L59.3,48.2 Z" id="Shape" fill="#1F3F5B"></path>
                                <path d="M44.5,78.1 C42.2,78 40.1,76.5 39.3,74.2 C38.2,71.1 38.7,68.2 41.8,67.1 C50.1,64.2 57.5,56.8 59.3,48.2 L70.6,50.7 C67.8,63.3 59.1,73.7 46.8,78 C46.1,78.2 45.3,78.1 44.5,78.1" id="Shape" fill="#F2D4C1"></path>
                                <path d="M67.1,48.5 L72,49.3 L70.8,52.5 L67.1,48.5 Z" id="Shape" fill="#023456"></path>
                                <path d="M58.4,50.9 C58.4,50.9 57.3,48.6 60.1,46 C60.1,46 63.7,42.9 65.6,45.2 C65.6,45.2 69.3,49 70.8,52.4 L69.9,53.7 C69.9,53.8 64.7,50.4 58.4,50.9 L58.4,50.9 Z" id="Shape" fill="#002035"></path>
                                <path d="M27.2,78.1 C29.5,78 31.6,76.5 32.4,74.2 C33.5,71.1 33,68.2 29.9,67.1 C21.6,64.2 14.3,56.8 12.4,48.2 L1.1,50.7 C3.9,63.3 12.6,73.7 24.9,78 C25.6,78.2 26.4,78.1 27.2,78.1" id="Shape" fill="#F2D4C1"></path>
                                <path d="M4.6,48.5 L-0.3,49.3 L0.9,52.5 L4.6,48.5 Z" id="Shape" fill="#023456"></path>
                                <path d="M13.3,50.9 C13.3,50.9 14.4,48.6 11.6,46 C11.6,46 8,42.9 6.1,45.2 C6.1,45.2 2.4,49 0.9,52.4 L1.8,53.7 C1.8,53.8 7,50.4 13.3,50.9 L13.3,50.9 Z" id="Shape" fill="#002035"></path>
                                <path d="M57.4,76.8 C57.4,87.5 48.3,96.7 37.6,96.7 L34.1,96.7 C23.4,96.7 14.7,87.5 14.7,76.8 L14.7,25.2 C14.7,14.5 23.4,5.6 34.1,5.6 L37.6,5.6 C48.3,5.6 57.4,14.5 57.4,25.2 L57.4,76.8 L57.4,76.8 Z" id="Shape" fill="#1F3F5B"></path>
                                <path d="M57.4,32.4 C57.4,32.4 57.5,28.9 55.3,25.8 C55.3,25.8 56.3,28.5 57.4,32.4 L57.4,32.4 Z" id="Shape" fill="#023456"></path>
                                <path d="M14.8,31.4 C14.8,31.4 14.7,27.9 16.9,24.8 C16.8,24.7 15.9,27.4 14.8,31.4 L14.8,31.4 Z" id="Shape" fill="#023456"></path>
                                <g transform="translate(36.000000, 17.000000)" id="Shape">
                                    <path d="M0.1,77.2 L0.6,77.2 L0.6,2 L0.1,2.1 L0.1,77.2 Z" fill="#023456"></path>
                                    <path d="M2.5,9.1 C2.5,9.5 2.2,9.8 1.8,9.8 C1.4,9.8 1.1,9.5 1.1,9.1 C1.1,8.7 1.4,8.4 1.8,8.4 C2.2,8.4 2.5,8.7 2.5,9.1" fill="#002035"></path>
                                    <path d="M2.5,1.1 C2.5,1.5 2.2,1.8 1.8,1.8 C1.4,1.8 1.1,1.5 1.1,1.1 C1.1,0.7 1.4,0.4 1.8,0.4 C2.2,0.4 2.5,0.7 2.5,1.1" fill="#002035"></path>
                                    <path d="M2.5,19.8 C2.5,20.2 2.2,20.5 1.8,20.5 C1.4,20.5 1.1,20.2 1.1,19.8 C1.1,19.4 1.4,19.1 1.8,19.1 C2.2,19 2.5,19.4 2.5,19.8" fill="#002035"></path>
                                    <path d="M2.5,30.8 C2.5,31.2 2.2,31.5 1.8,31.5 C1.4,31.5 1.1,31.2 1.1,30.8 C1.1,30.4 1.4,30.1 1.8,30.1 C2.2,30.1 2.5,30.4 2.5,30.8" fill="#002035"></path>
                                    <path d="M2.5,42.9 C2.5,43.3 2.2,43.6 1.8,43.6 C1.4,43.6 1.1,43.3 1.1,42.9 C1.1,42.5 1.4,42.2 1.8,42.2 C2.2,42.2 2.5,42.5 2.5,42.9" fill="#002035"></path>
                                    <path d="M2.5,54.1 C2.5,54.5 2.2,54.8 1.8,54.8 C1.4,54.8 1.1,54.5 1.1,54.1 C1.1,53.7 1.4,53.4 1.8,53.4 C2.2,53.3 2.5,53.7 2.5,54.1" fill="#002035"></path>
                                    <path d="M2.5,64.5 C2.5,64.9 2.2,65.2 1.8,65.2 C1.4,65.2 1.1,64.9 1.1,64.5 C1.1,64.1 1.4,63.8 1.8,63.8 C2.2,63.8 2.5,64.1 2.5,64.5" fill="#002035"></path>
                                </g>
                                <rect id="Rectangle" fill="#432A3E" x="43" y="26" width="8.6" height="2"></rect>
                                <path d="M26.7,0 L45.2,0 L45.2,10.3 L36.4,19.5 L26.8,10.6 L26.7,0 Z" id="Shape" fill="#F2D4C1"></path>
                                <path d="M47.9,11.6 C47.9,11.6 43.1,13.1 36.2,21 C36.2,21 36.1,17.3 40,14.3 C40,14.4 44.6,10.6 47.9,11.6 L47.9,11.6 Z" id="Shape" fill="#023456"></path>
                                <path d="M27.7,12.2 C27.7,12.2 32.2,15.9 36.6,21.3 C36.6,21.3 36.8,17.7 31.8,14.4 C31.8,14.4 29.1,11.8 27.7,12.2 L27.7,12.2 Z" id="Shape" fill="#023456"></path>
                                <path d="M31.8,14.4 C31.8,14.4 27.1,8.3 27.1,2.3 C27.1,2.3 25.9,4.9 24.1,7.4 C22.4,10 23,11.9 23,11.9 C23,11.9 26.6,11.4 31.8,14.4 L31.8,14.4 Z" id="Shape" fill="#6D6E72"></path>
                                <path d="M40,14.4 C40,14.4 44.7,8.3 44.7,2.3 C44.7,2.3 45.9,4.9 47.6,7.4 C49.3,10 48.7,11.9 48.7,11.9 C48.7,11.9 45.2,11.4 40,14.4 L40,14.4 Z" id="Shape" fill="#6D6E72"></path>
                            </g>
                        </g>
                        <path d="M107,33.8 C107,53 94.9,71.4 77,71.4 C59.1,71.4 47,53 47,33.8 C47,14.6 59.1,3.8 77,3.8 C94.9,3.8 107,14.6 107,33.8" id="Shape" fill="#776130" sketch:type="MSShapeGroup"></path>
                        <path d="M105,33.8 L105,49 C105,66 88.2,80 77,80 C65.8,80 49,66.1 49,49 L49,33.8" id="Shape" fill="#F2D4C1" sketch:type="MSShapeGroup"></path>
                        <path d="M105.2,38.3 C105.2,32.7 105,27.7 102.3,23.5 C97,15 88.2,22.8 76.8,22.8 C64.4,22.8 54.9,15.9 50,25.7 C48.1,29.4 47.4,37.6 47.4,42.3" id="Shape" fill="#F2D4C1" sketch:type="MSShapeGroup"></path>
                        <path d="M111.9,46.2 C111.9,49.3 109.4,51.9 106.2,51.9 C103.1,51.9 100.5,49.4 100.5,46.2 C100.5,43.1 103,40.5 106.2,40.5 C109.3,40.5 111.9,43 111.9,46.2" id="Shape" fill="#F2D4C1" sketch:type="MSShapeGroup"></path>
                        <path d="M53,46.2 C53,49.3 50.5,51.9 47.3,51.9 C44.2,51.9 41.6,49.4 41.6,46.2 C41.6,43.1 44.1,40.5 47.3,40.5 C50.4,40.5 53,43 53,46.2" id="Shape" fill="#F2D4C1" sketch:type="MSShapeGroup"></path>
                        <path d="M76.4,46.3 C75,46.2 73.8,47.5 73.8,49.2 L73.8,53.9 C73.8,55.5 75,56.9 76.4,57 C77.8,57.1 79,55.8 79,54.1 L79,49.4 C79.1,47.7 77.9,46.4 76.4,46.3" id="Shape" fill="#ECA671" sketch:type="MSShapeGroup"></path>
                        <path d="M64.5,45.8 C63.6,45.8 62.9,45.1 62.9,44.2 C62.9,43.3 63.6,42.6 64.5,42.6 C65.4,42.6 66.1,43.3 66.1,44.2 C66.1,45.1 65.4,45.8 64.5,45.8" id="Shape" fill="#754B21" sketch:type="MSShapeGroup"></path>
                        <path d="M89.4,45.8 C90.3,45.8 91,45.1 91,44.2 C91,43.3 90.3,42.6 89.4,42.6 C88.5,42.6 87.8,43.3 87.8,44.2 C87.8,45.1 88.5,45.8 89.4,45.8" id="Shape" fill="#754B21" sketch:type="MSShapeGroup"></path>
                        <path d="M83.9,40.3 L83.7,40.3 L83.6,39.7 L83.8,39.6 C83.8,39.6 84.7,39 86,38.5 C86.3,38.4 86.6,38.3 86.9,38.3 L87.2,38.2 C87.6,38.1 88,38.1 88.5,38 C88.9,38 89.3,38 89.6,38.1 L89.9,38.1 L90,38.1 C90.1,38.1 90.3,38.1 90.4,38.2 C90.7,38.2 91,38.3 91.3,38.4 L92.6,38.7 C92.9,38.8 93.2,38.9 93.5,39 C93.6,39.1 93.8,39.1 93.9,39.2 L94.2,39.3 C94.5,39.4 94.8,39.5 95.1,39.7 L96.6,40.5 C97,40.7 97.4,41 97.6,41.2 C97.9,41.4 98.1,41.6 98.1,41.6 L98.3,41.8 L98,42.3 L97.7,42.2 C97.7,42.2 97.5,42.1 97.2,41.9 C96.9,41.8 96.5,41.6 96,41.4 L95.7,41.3 C95.5,41.3 95.3,41.2 95.1,41.1 C94.6,40.9 94.1,40.8 93.5,40.7 C93.3,40.7 93.2,40.6 93,40.6 C92.7,40.5 92.5,40.5 92.2,40.5 L91,40.3 L90.2,40.3 L89.8,40.3 L89.2,40.3 L88.6,40.3 C88.1,40.3 87.7,40.4 87.4,40.4 L86.8,40.4 L86.4,40.4 C84.9,40.5 84,40.3 83.9,40.3" id="Shape" fill="#704D24" sketch:type="MSShapeGroup"></path>
                        <path d="M67.1,40.4 L66.6,40.4 L66,40.4 C65.7,40.4 65.3,40.4 64.8,40.3 L64.2,40.3 L63.6,40.3 L63.2,40.3 L62.4,40.3 L61,40.4 C60.7,40.4 60.5,40.5 60.2,40.5 C60,40.5 59.9,40.6 59.7,40.6 C59.1,40.7 58.6,40.9 58.1,41 C57.9,41.1 57.7,41.1 57.5,41.2 L57.2,41.3 C56.7,41.5 56.3,41.6 56,41.8 C55.7,41.9 55.5,42.1 55.5,42.1 L55.2,42.2 L54.8,41.6 L55,41.4 C55,41.4 55.2,41.2 55.5,41 C55.8,40.8 56.1,40.6 56.5,40.3 L58,39.5 C58.3,39.3 58.6,39.2 58.9,39.1 L59.2,39 C59.3,39 59.5,38.9 59.6,38.8 C59.9,38.7 60.2,38.6 60.5,38.5 L61.9,38.2 C62.2,38.1 62.5,38.1 62.8,38 C62.9,38 63.1,38 63.2,37.9 L63.3,37.9 L63.6,37.9 C64,37.8 64.3,37.8 64.7,37.8 C65.2,37.9 65.7,37.9 66,38 L66.3,38 C66.6,38.1 66.9,38.1 67.2,38.2 C68.5,38.7 69.3,39.2 69.4,39.3 L69.6,39.4 L69.5,40 L69.3,40 C69.4,40.3 68.4,40.5 67.1,40.4" id="Shape" fill="#704D24" sketch:type="MSShapeGroup"></path>
                        <path d="M102.4,22.3 C102.4,22.3 104.2,27.8 103,30.5 C101.9,33.2 102.5,34.7 103.7,36.9 C104.8,39.2 105.2,42.2 105.2,42.2 C105.2,42.2 106.7,33.7 105.9,29.1 C105.2,24.8 102.4,22.3 102.4,22.3" id="Shape" fill="#776130" sketch:type="MSShapeGroup"></path>
                        <path d="M51.2,23 C51.2,23 49.1,28.5 50.4,31.2 C51.8,33.9 51,35.4 49.6,37.6 C48.2,39.9 47.7,42.9 47.7,42.9 C47.7,42.9 45.8,34.4 46.8,29.8 C47.9,25.4 51.2,23 51.2,23" id="Shape" fill="#776130" sketch:type="MSShapeGroup"></path>
                        <path d="M77.2,60.3 C77.2,60.3 78.4,60.5 81.9,60.5 C85.4,60.5 89,67.6 89,67.6 C89,67.6 90.8,65.9 87.7,60.9 C86.9,59.6 84,57.4 81.4,57.2 C78.8,56.9 77,58 77,58 C76.2,58.4 75.8,58.1 75.8,58.1 C75.8,58.1 74.3,56.8 71.7,57 C69.1,57.2 66.2,59.5 65.4,60.7 C62.4,65.3 64.3,66.8 64.3,66.8 C64.3,66.8 67.8,60.3 71.3,60.3 C74.8,60.3 76,60.1 76,60.1 C76.3,59.4 76.6,59.3 77.2,60.3" id="Shape" fill="#AA9168" sketch:type="MSShapeGroup"></path>
                        <path d="M88.2,66.2 C88.2,66.2 90.3,66.2 92.1,63.6 C93.9,61 99.5,60.4 101.4,52.2 C103.3,44 106.2,39.7 106.2,39.7 C106.2,39.7 105.6,44.1 105.2,51.9 C104.7,59.6 98.3,75 82.3,80.1 C73.6,78.1 94.9,73.1 88.2,66.2" id="Shape" fill="#776130" sketch:type="MSShapeGroup"></path>
                        <path d="M64.7,66.2 C64.7,66.2 63.5,66.1 61.8,63.5 C60,60.9 54.4,60.3 52.5,52.1 C50.6,43.9 47.3,39.6 47.3,39.6 C47.3,39.6 48.3,44 48.8,51.8 C49.3,59.5 55.5,74.9 71.4,80 C80.1,78.1 58,73.7 64.7,66.7" id="Shape" fill="#776130" sketch:type="MSShapeGroup"></path>
                        <path d="M80.1,70 C80.1,71.1 78.5,74.1 76.5,74.1 C74.5,74.1 72.9,71.1 72.9,70 C72.9,68.9 74.5,68.1 76.5,68.1 C78.5,68.1 80.1,69 80.1,70" id="Shape" fill="#8E7747" sketch:type="MSShapeGroup"></path>
                        <path d="M88.2,66.2 L88.2,66.8 C88.2,70.5 83.1,73.4 76.9,73.4 C70.7,73.4 64.6,70.5 64.6,66.8 L64.6,66.2 C63,67.6 62.1,70.1 62.1,72.5 C62.1,78.5 69.1,80.9 76.7,80.9 C84.3,80.9 90.6,78.5 90.6,72.5 C90.6,70.1 89.7,67.9 88.2,66.2" id="Shape" fill="#826B41" sketch:type="MSShapeGroup"></path>
                        <path d="M104.1,39.5 C104.1,39.5 93.2,36 81.8,39.3 C81.8,39.3 76.9,42.3 70.3,39.2 C70.3,39.2 60.7,36.1 49.5,39 C49.5,39 49.1,39.6 49.2,41.1 C49.2,41.1 49.1,42.1 49.6,42.3 C50.1,42.5 50.4,42.8 50.6,43.6 C50.8,44.4 51.8,51.4 54.2,53 C54.2,53 57.2,56.3 65,55.2 C65,55.2 70.1,54 71.7,51.4 C73.3,48.8 73.6,44.1 76.5,44.1 C76.5,44.1 78.8,43.7 79.9,48.9 C79.9,48.9 81.7,54 84.5,54.5 C84.5,54.5 88.6,56.9 96.4,55.1 C96.4,55.1 100.5,53.9 101.6,49.2 C102.8,44.5 103.3,42.7 104.1,42.8 C104.1,42.8 105.4,42.6 105.8,42.2 C106.2,41.7 106.4,40.3 106.4,40.3 C106.4,40.3 105.8,39.6 104.1,39.5 L104.1,39.5 Z M69.5,52.4 C69.5,52.4 65.9,55.4 60.6,54.3 C60.6,54.3 54.8,54.6 53.3,49.6 C53.3,49.6 51,44.4 52.7,40.8 C52.7,40.8 53,38.9 59.2,38.8 C59.2,38.8 64.7,39 66.6,39.5 C66.6,39.5 72.2,39.6 72.6,43.8 C72.7,43.8 73.1,48.2 69.5,52.4 L69.5,52.4 Z M99.3,51.9 C99.3,51.9 97,55.2 91.5,54.9 C91.5,54.9 86.6,55.1 84.2,53.2 C84.2,53.2 81.6,51.5 80.4,46.8 C80.4,46.8 79.7,43.3 80.9,42.1 C80.9,42.1 82.7,39.8 88.1,39.5 C88.1,39.5 91.8,39 96.5,39.5 C96.5,39.5 100.7,39.6 101.1,43 C101.2,43 102.2,47.4 99.3,51.9 L99.3,51.9 Z" id="Shape" fill="#000000" sketch:type="MSShapeGroup"></path>
                        <g transform="translate(43.000000, 0.000000)" id="Shape" sketch:type="MSShapeGroup">
                            <path d="M2.4,31.3 C2.4,31.3 3.1,23 4.6,17.6 C6,12.8 28.4,0.3 33.3,0.3 C38.8,0.3 62.2,11.4 64.5,19.6 C64.5,19.6 65.2,24.2 64,31.6 C64,31.6 32.6,15.5 2.4,31.3 L2.4,31.3 Z" fill="#EFEFEF"></path>
                            <path d="M3.7,35.8 L3.7,30.8 C3.7,30.8 16.7,22.2 32,23.8 C47.3,25.4 54.7,26.4 64,31.5 L64,34.8 C64,34.8 46.1,29 32,28.3 C30.4,28.2 14.5,28.4 3.7,35.8 L3.7,35.8 Z" opacity="0.8" fill="#124214"></path>
                            <path d="M1.8,33.1 C1.8,33.1 25.8,14.7 64.9,33.1 C64.9,33.1 67.7,33.8 66.5,31.2 C66.5,31.2 33.3,11.1 0.4,31.2 C0.4,31.1 -1.8,33.5 1.8,33.1 L1.8,33.1 Z" fill="#56BF62"></path>
                            <path d="M24.2,17.1 C24.2,17.1 36.3,15.4 41.6,17 C46.9,18.6 44.4,14.3 44.4,14.3 L41,5.4 C41,5.4 40.5,2.9 36.3,2.7 C32,2.5 27.9,2.4 26.2,4.7 C24.5,7 21.9,14.6 21.9,14.6 C21.9,14.6 20.7,17.5 24.2,17.1 L24.2,17.1 Z" fill="#333333"></path>
                            <path d="M24.2,17.1 C24.2,17.1 36.3,15.4 41.6,17 C46.9,18.6 44.4,14.3 44.4,14.3 L41,5.4 C41,5.4 40.5,2.9 36.3,2.7 C32,2.5 27.9,2.4 26.2,4.7 C24.5,7 21.9,14.6 21.9,14.6 C21.9,14.6 20.7,17.5 24.2,17.1 L24.2,17.1 Z" stroke="#F6CF40"></path>
                            <path d="M26.3,11.9 C26.3,11.6 29,4.8 29,4.8 L30.4,11.9 L29.3,11.9 L29.1,14.3 C29.1,14.3 27.9,14.5 27.9,14.3 C27.9,14.1 27.8,11.9 27.8,11.9 L26.3,11.9 L26.3,11.9 Z" fill="#56BF62"></path>
                            <path d="M29.9,6 L30.9,10.6 L40.7,11.1 L37.8,6 C37.8,6 35.2,8.2 34.8,8.2 C34.4,8.2 32.7,4.8 32.7,4.8 L29.9,6 L29.9,6 Z" fill="#FFFFFF"></path>
                            <path d="M30.9,11.4 L32.1,12.7 L38.3,12.7 L38.3,12.1 L30.9,11.4 Z" fill="#44B5D4"></path>
                            <path d="M30.1,13.6 C30.1,13.6 30,15.3 30.4,15.1 C30.8,14.9 36.4,14.4 36.4,14.4 L41.8,15.6 L41.8,13.6 L30.1,13.6 L30.1,13.6 Z" fill="#56BF62"></path>
                        </g>
                        <path d="M76.4,65.2 C74.5,65.2 72.8,64.2 71.8,62.6 C71.7,62.5 71.7,62.4 71.7,62.2 C71.7,62.1 71.8,62 71.9,61.9 C72,61.9 72.1,61.8 72.2,61.8 C72.4,61.8 72.5,61.9 72.6,62 C73.4,63.3 74.9,64.1 76.4,64.1 C78,64.1 79.4,63.3 80.2,62 C80.3,61.9 80.4,61.8 80.6,61.8 C80.7,61.8 80.8,61.8 80.9,61.9 C81,62 81.1,62.1 81.1,62.2 C81.1,62.3 81.1,62.5 81,62.6 C80,64.2 78.3,65.2 76.4,65.2" id="Shape" fill="#6A330D" sketch:type="MSShapeGroup"></path>
                        <path d="M50.9,39.3 L50.2,42.6 L47.4,41 L47.2,39.6 L50.9,38.6 L50.9,39.3 Z" id="Shape" fill="#000000" sketch:type="MSShapeGroup"></path>
                    </g>
                </g>
            </g>
        </g>
    </g>
</svg>